<svg xmlns="http://www.w3.org/2000/svg" viewBox="0 0 437.46 100.3"><defs><style>.cls-1{fill:#fff;}</style></defs><g id="Capa_2" data-name="Capa 2"><g id="Capa_5" data-name="Capa 5"><path class="cls-1" d="M41.33,6.36l-7.8,10.4C31.07,14.31,28.18,13.3,24,13.3c-6.94,0-9,4.33-9,11.7V39.6H37v13H15V99.29H0V25C0,9.11,8.53,0,24,0,31.8,0,37,2.46,41.33,6.36ZM59,2.89c-6.36,0-9.83,3.32-9.83,9.68S52.61,22.4,59,22.4s9.82-3.47,9.82-9.83S65.33,2.89,59,2.89Zm7.51,30.5h-15v65.9h15Z"/><path class="cls-1" d="M127.32,99.29V60.85c0-9-5.63-15.18-14.74-15.18-9,0-15.46,6.21-15.46,15.18V99.29h-15V52c5-11.56,14.74-19.66,31.21-19.66,17.2,0,29.05,10.84,29.05,28V99.29Z"/><path class="cls-1" d="M202.76,99.29V60.85c0-9-5.64-15.18-14.74-15.18s-15.47,6.21-15.47,15.18V99.29h-15V52c5.06-11.56,14.75-19.66,31.22-19.66,17.2,0,29,10.84,29,28V99.29Z"/><path class="cls-1" d="M304.21,66.34c0,20.23-16.76,34-37,34s-37-13.73-37-34c0-20.38,16.77-34,37-34S304.21,46,304.21,66.34Zm-15.61,0c0-12-9.39-20.67-21.39-20.67s-21.39,8.67-21.39,20.67S255.22,87,267.21,87,288.6,78.33,288.6,66.34Z"/><path class="cls-1" d="M373.15,33.39l-29.34,65.9h-7.95l-29.48-65.9h16.9l16.77,41,16.76-41Z"/><path class="cls-1" d="M437.46,58.1V83.25c-5.49,11.27-15,17-29.63,17s-28.76-7.23-28.76-21.39c0-11.56,9.25-19.65,26.59-19.65h16.77V58.1c0-8.53-6.22-12.72-15-12.72-7.23,0-14,2.6-19.51,5.64l-6.36-11.71a53.12,53.12,0,0,1,25.87-6.94C424.45,32.37,437.46,41.05,437.46,58.1Zm-15,13.58H405.66c-8,0-11.13,2.32-11.13,7.09,0,5.92,5.93,8.52,13.44,8.52,7.23,0,14.46-2.31,14.46-10.69Z"/></g></g></svg>